<svg xmlns="http://www.w3.org/2000/svg" width="390" height="844" viewBox="0 0 390 844" font-family="Hiragino Sans, Noto Sans JP, system-ui, sans-serif">
<title>タイトル (狭い画面)</title>
<rect width="390" height="844" fill="#f2f2f2"/>
<rect x="0" y="0" width="390" height="844" rx="0" fill="#ddd" stroke="#bbb" stroke-width="1.5"/>
<path d="M0 0L390 844M390 0L0 844" stroke="#bbb" stroke-width="1"/>
<text x="195.0" y="350" font-size="14" fill="#888" text-anchor="middle" font-weight="normal">背景のデモ (操作できない)</text>
<rect x="0" y="380" width="390" height="464" fill="#222" fill-opacity="0.55"/>
<rect x="40" y="56" width="310" height="120" rx="2" fill="#888" stroke="#222" stroke-width="1.5"/>
<text x="195.0" y="114.0" font-size="16" fill="#fff" text-anchor="middle" font-weight="bold">ロゴ (石板と動物の紋)</text>
<text x="195.0" y="134.0" font-size="12" fill="#ddd" text-anchor="middle" font-weight="normal">沈みゆく島の命を、見守る</text>
<rect x="24" y="420" width="342" height="50" rx="6" fill="#555" stroke="#222" stroke-width="2"/>
<text x="40" y="443.6" font-size="16" fill="#fff" text-anchor="start" font-weight="bold">続きから</text>
<text x="40" y="461.6" font-size="12" fill="#ddd" text-anchor="start" font-weight="normal">自由モード · 12 年 · 10/04 18:40</text>
<rect x="24" y="480" width="342" height="50" rx="6" fill="#fff" stroke="#888" stroke-width="1.5"/>
<text x="40" y="510.6" font-size="16" fill="#222" text-anchor="start" font-weight="normal">新規ゲーム</text>
<rect x="24" y="540" width="342" height="50" rx="6" fill="#fff" stroke="#888" stroke-width="1.5"/>
<text x="40" y="570.6" font-size="16" fill="#222" text-anchor="start" font-weight="normal">ロード</text>
<rect x="24" y="600" width="342" height="50" rx="6" fill="#fff" stroke="#888" stroke-width="1.5"/>
<text x="40" y="630.6" font-size="16" fill="#222" text-anchor="start" font-weight="normal">港</text>
<rect x="24" y="660" width="342" height="50" rx="6" fill="#fff" stroke="#888" stroke-width="1.5"/>
<text x="40" y="690.6" font-size="16" fill="#222" text-anchor="start" font-weight="normal">コンフィグ</text>
<rect x="24" y="220" width="152" height="24" rx="2" fill="#fff" stroke="#555" stroke-width="1" stroke-dasharray="6 4"/>
<text x="32" y="235" font-size="12" fill="#555" text-anchor="start" font-weight="normal">主役 (群れ) は上半分</text>
<rect x="24" y="250" width="164" height="24" rx="2" fill="#fff" stroke="#555" stroke-width="1" stroke-dasharray="6 4"/>
<text x="32" y="265" font-size="12" fill="#555" text-anchor="start" font-weight="normal">メニューは親指の届く下半分</text>
<text x="378" y="834" font-size="11" fill="#888" text-anchor="end" font-weight="normal">title-narrow 390x844</text>
</svg>
